<svg xmlns="http://www.w3.org/2000/svg" viewBox="0 0 446.46 143.87"><defs><style>.cls-1{fill:#bcbec0;}.cls-2{fill:#c89341;stroke:#6f4f2b;}.cls-2,.cls-5,.cls-7,.cls-9{stroke-width:2px;}.cls-3,.cls-4{font-size:12px;fill:#464646;}.cls-3{font-family:Helvetica-Oblique, Helvetica;}.cls-4{font-family:Helvetica, Helvetica;}.cls-5,.cls-7,.cls-9{fill:none;}.cls-5{stroke:#3e7cb9;}.cls-6{fill:#3e7cb9;}.cls-7,.cls-9{stroke:#010101;}.cls-8{fill:#010101;}.cls-9{stroke-dasharray:4 3;}</style></defs><title>coordinates</title><g id="Graphics"><g id="coordinates"><rect class="cls-1" x="212.51" y="-26.16" width="21.43" height="214.32" transform="matrix(0.5, -0.87, 0.87, 0.5, 41.46, 233.82)"/><rect class="cls-2" x="211.58" y="17.32" width="42.86" height="64.3" transform="translate(73.66 226.53) rotate(-60)"/></g></g><g id="Text"><g id="coordinates-2" data-name="coordinates"><text class="cls-3" transform="translate(233.94 138.17)">F</text><text class="cls-4" transform="translate(241.27 142.16) scale(0.58)">z</text><text class="cls-3" transform="translate(251.58 9.77)">F</text><text class="cls-4" transform="translate(258.91 13.77) scale(0.58)">n</text><text class="cls-3" transform="translate(154.57 25.69)">F</text><text class="cls-4" transform="translate(161.9 29.69) scale(0.58)">f</text><text class="cls-3" transform="translate(269.41 79.01)">F</text><text class="cls-4" transform="translate(276.74 83) scale(0.58)">z,x</text><text class="cls-3" transform="translate(184.96 119.51)">F</text><text class="cls-4" transform="translate(192.29 123.51) scale(0.58)">z,y</text></g></g><g id="Arrows"><g id="coordinates-3" data-name="coordinates"><line class="cls-5" x1="164.44" y1="34.68" x2="195.19" y2="52.38"/><polygon class="cls-6" points="158.32 31.16 164.92 39.65 164.9 34.95 168.97 32.6 158.32 31.16"/><line class="cls-7" x1="216.16" y1="65.4" x2="246.67" y2="11.83"/><polygon class="cls-8" points="250.17 5.69 248.77 16.35 246.41 12.29 241.71 12.33 250.17 5.69"/><line class="cls-9" x1="200.16" y1="105.14" x2="231.74" y2="48.86"/><polygon class="cls-8" points="196.7 111.3 205.11 104.61 200.41 104.68 198.03 100.63 196.7 111.3"/><line class="cls-9" x1="233.94" y1="49.29" x2="263.1" y2="66.22"/><polygon class="cls-8" points="269.21 69.77 258.56 68.29 262.65 65.96 262.65 61.26 269.21 69.77"/><line class="cls-7" x1="232.23" y1="48.43" x2="232.23" y2="123.67"/><polygon class="cls-8" points="232.23 130.73 228.16 120.78 232.23 123.14 236.29 120.78 232.23 130.73"/></g></g></svg>