<svg xmlns="http://www.w3.org/2000/svg" viewBox="0 0 446.46 215"><defs><style>.cls-1{fill:#c7c8c9;}.cls-14,.cls-17,.cls-19,.cls-2,.cls-5,.cls-6,.cls-7{fill:none;stroke-miterlimit:10;}.cls-2{stroke:#010101;}.cls-17,.cls-19,.cls-2,.cls-5,.cls-6,.cls-7{stroke-width:2px;}.cls-3{fill:#c89341;}.cls-4{fill:#365a50;}.cls-14,.cls-5,.cls-6{stroke:#231f20;}.cls-6{stroke-linecap:round;}.cls-7{stroke:#e5483f;}.cls-10,.cls-11,.cls-12,.cls-8,.cls-9{font-size:12px;}.cls-12,.cls-15,.cls-8,.cls-9{fill:#231f20;}.cls-10,.cls-11,.cls-8,.cls-9{font-family:Helvetica-Oblique, Helvetica;}.cls-8{letter-spacing:-0.04em;}.cls-10,.cls-11,.cls-13{fill:#010101;}.cls-11{letter-spacing:-0.02em;}.cls-12{font-family:Helvetica, Helvetica;}.cls-13{font-size:13px;font-family:Symbol, Symbol;}.cls-16{fill:#e5483f;}.cls-17{stroke:#55a69f;}.cls-18{fill:#55a69f;}.cls-19{stroke:#3e7cb9;}.cls-20{fill:#3e7cb9;}</style></defs><title>suspendedsign</title><g id="Graphics"><g id="suspendedsign"><rect class="cls-1" x="28.3" y="3.09" width="25.76" height="193.17"/><line class="cls-2" x1="54.05" y1="3.09" x2="54.05" y2="196.25"/><rect class="cls-3" x="55.34" y="112.55" width="128.78" height="6.44"/><rect class="cls-4" x="74.66" y="141.52" width="90.14" height="25.76"/><line class="cls-5" x1="87.53" y1="141.52" x2="87.53" y2="118.99"/><line class="cls-5" x1="151.92" y1="141.52" x2="151.92" y2="118.99"/><line class="cls-6" x1="179.79" y1="115.77" x2="54.05" y2="29.81"/><rect class="cls-1" x="285.85" y="3.09" width="25.76" height="193.17"/><line class="cls-2" x1="311.6" y1="3.09" x2="311.6" y2="196.25"/><rect class="cls-3" x="312.89" y="112.55" width="128.78" height="6.44"/><rect class="cls-4" x="332.21" y="141.52" width="90.14" height="25.76"/><line class="cls-5" x1="345.09" y1="141.52" x2="345.09" y2="118.99"/><line class="cls-5" x1="409.48" y1="141.52" x2="409.48" y2="118.99"/><line class="cls-6" x1="437.34" y1="115.77" x2="311.6" y2="29.81"/><circle class="cls-7" cx="311.6" cy="115.77" r="1.29"/></g></g><g id="Text"><g id="suspendedsign-2" data-name="suspendedsign"><text class="cls-8" transform="translate(116.67 205.27)">L</text><text class="cls-9" transform="translate(8.17 77.32)">h</text><text class="cls-8" transform="translate(374.22 205.27)">L</text><text class="cls-10" transform="translate(340.94 81.55)">F</text><text class="cls-10" transform="translate(348.27 85.55) scale(0.58)">w</text><text class="cls-10" transform="translate(389.08 68.5)">F</text><text class="cls-11" transform="translate(396.41 72.5) scale(0.58)">T</text><text class="cls-10" transform="translate(385.16 135.37)">F</text><text class="cls-10" transform="translate(392.49 139.37) scale(0.58)">z</text><text class="cls-10" transform="translate(385.37 186.67)">F</text><text class="cls-10" transform="translate(392.7 190.66) scale(0.58)">z</text><text class="cls-10" transform="translate(415.47 137.66)">F</text><text class="cls-11" transform="translate(422.8 141.66) scale(0.58)">T</text><text class="cls-12" transform="translate(3.3 13.87)">(a)</text><text class="cls-12" transform="translate(260.85 13.87)">(b)</text><text class="cls-13" transform="translate(407.8 110.82)">θ</text><text class="cls-13" transform="translate(330.92 104.97)">f</text><text class="cls-9" transform="translate(264.72 77.32)">h</text></g></g><g id="Arrows"><g id="suspendedsign-3" data-name="suspendedsign"><path class="cls-14" d="M418,115.77a19.23,19.23,0,0,1,3.3-10.8"/><path class="cls-14" d="M321.26,99a19.31,19.31,0,0,1,9.66,16.73"/><line class="cls-14" x1="54.55" y1="209.13" x2="183.62" y2="209.13"/><rect class="cls-15" x="54.05" y="205.88" width="1" height="6.5"/><rect class="cls-15" x="183.12" y="205.88" width="1" height="6.5"/><line class="cls-14" x1="20.57" y1="115.27" x2="20.57" y2="30.31"/><rect class="cls-15" x="17.32" y="114.77" width="6.5" height="1"/><rect class="cls-15" x="17.32" y="29.81" width="6.5" height="1"/><line class="cls-14" x1="312.1" y1="209.13" x2="441.17" y2="209.13"/><rect class="cls-15" x="311.6" y="205.88" width="1" height="6.5"/><rect class="cls-15" x="440.67" y="205.88" width="1" height="6.5"/><line class="cls-14" x1="278.12" y1="115.27" x2="278.12" y2="30.31"/><rect class="cls-15" x="274.87" y="114.77" width="6.5" height="1"/><rect class="cls-15" x="274.87" y="29.81" width="6.5" height="1"/><line class="cls-7" x1="311.6" y1="115.77" x2="335.45" y2="74.46"/><polygon class="cls-16" points="338.98 68.35 337.53 79 335.19 74.92 330.49 74.93 338.98 68.35"/><line class="cls-17" x1="437.34" y1="115.77" x2="386.02" y2="80.68"/><polygon class="cls-18" points="377.28 74.71 393.04 78.09 386.68 81.13 386.16 88.16 377.28 74.71"/><line class="cls-19" x1="377.28" y1="115.77" x2="377.28" y2="131.89"/><polygon class="cls-20" points="377.28 138.95 373.21 129 377.28 131.36 381.35 129 377.28 138.95"/><line class="cls-19" x1="377.28" y1="154.4" x2="377.28" y2="185.97"/><polygon class="cls-20" points="377.28 193.03 373.21 183.08 377.28 185.44 381.35 183.08 377.28 193.03"/><line class="cls-17" x1="409.47" y1="141.52" x2="409.47" y2="137.33"/><polygon class="cls-18" points="409.48 133.8 411.51 138.77 409.48 137.59 407.44 138.77 409.48 133.8"/><line class="cls-17" x1="345.09" y1="141.52" x2="345.09" y2="137.33"/><polygon class="cls-18" points="345.09 133.8 347.12 138.77 345.09 137.59 343.05 138.77 345.09 133.8"/><line class="cls-17" x1="409.47" y1="123.18" x2="409.47" y2="118.99"/><polygon class="cls-18" points="409.48 126.71 411.51 121.74 409.48 122.92 407.44 121.74 409.48 126.71"/><line class="cls-17" x1="345.09" y1="123.18" x2="345.09" y2="118.99"/><polygon class="cls-18" points="345.09 126.71 347.12 121.74 345.09 122.92 343.05 121.74 345.09 126.71"/></g></g></svg>